<svg width="78" height="78" viewBox="0 0 78 78" fill="none" xmlns="http://www.w3.org/2000/svg">
<path d="M0 58.791V53.6723C0 51.3431 1.19167 49.4473 3.575 47.9848C5.95833 46.5223 9.1 45.791 13 45.791C13.7042 45.791 14.3812 45.8046 15.0312 45.8316C15.6812 45.8587 16.3042 45.9264 16.9 46.0348C16.1417 47.1723 15.5729 48.3639 15.1937 49.6098C14.8146 50.8556 14.625 52.1556 14.625 53.5098V58.791H0ZM19.5 58.791V53.5098C19.5 51.7764 19.974 50.1921 20.9219 48.7566C21.8698 47.3212 23.2104 46.0618 24.9437 44.9785C26.6771 43.8952 28.749 43.0827 31.1594 42.541C33.5698 41.9993 36.1833 41.7285 39 41.7285C41.8708 41.7285 44.5115 41.9993 46.9219 42.541C49.3323 43.0827 51.4042 43.8952 53.1375 44.9785C54.8708 46.0618 56.1979 47.3212 57.1187 48.7566C58.0396 50.1921 58.5 51.7764 58.5 53.5098V58.791H19.5ZM63.375 58.791V53.5098C63.375 52.1014 63.199 50.7743 62.8469 49.5285C62.4948 48.2827 61.9667 47.1181 61.2625 46.0348C61.8583 45.9264 62.4677 45.8587 63.0906 45.8316C63.7135 45.8046 64.35 45.791 65 45.791C68.9 45.791 72.0417 46.5087 74.425 47.9441C76.8083 49.3796 78 51.2889 78 53.6723V58.791H63.375ZM26.4062 52.291H51.675C51.1333 51.2077 49.6302 50.2598 47.1656 49.4473C44.701 48.6348 41.9792 48.2285 39 48.2285C36.0208 48.2285 33.299 48.6348 30.8344 49.4473C28.3698 50.2598 26.8937 51.2077 26.4062 52.291ZM13 42.541C11.2125 42.541 9.68229 41.9046 8.40937 40.6316C7.13646 39.3587 6.5 37.8285 6.5 36.041C6.5 34.1993 7.13646 32.6556 8.40937 31.4098C9.68229 30.1639 11.2125 29.541 13 29.541C14.8417 29.541 16.3854 30.1639 17.6312 31.4098C18.8771 32.6556 19.5 34.1993 19.5 36.041C19.5 37.8285 18.8771 39.3587 17.6312 40.6316C16.3854 41.9046 14.8417 42.541 13 42.541ZM65 42.541C63.2125 42.541 61.6823 41.9046 60.4094 40.6316C59.1365 39.3587 58.5 37.8285 58.5 36.041C58.5 34.1993 59.1365 32.6556 60.4094 31.4098C61.6823 30.1639 63.2125 29.541 65 29.541C66.8417 29.541 68.3854 30.1639 69.6312 31.4098C70.8771 32.6556 71.5 34.1993 71.5 36.041C71.5 37.8285 70.8771 39.3587 69.6312 40.6316C68.3854 41.9046 66.8417 42.541 65 42.541ZM39 39.291C36.2917 39.291 33.9896 38.3431 32.0938 36.4473C30.1979 34.5514 29.25 32.2493 29.25 29.541C29.25 26.7785 30.1979 24.4629 32.0938 22.5941C33.9896 20.7254 36.2917 19.791 39 19.791C41.7625 19.791 44.0781 20.7254 45.9469 22.5941C47.8156 24.4629 48.75 26.7785 48.75 29.541C48.75 32.2493 47.8156 34.5514 45.9469 36.4473C44.0781 38.3431 41.7625 39.291 39 39.291ZM39 32.791C39.9208 32.791 40.6927 32.4796 41.3156 31.8566C41.9385 31.2337 42.25 30.4618 42.25 29.541C42.25 28.6202 41.9385 27.8483 41.3156 27.2254C40.6927 26.6025 39.9208 26.291 39 26.291C38.0792 26.291 37.3073 26.6025 36.6844 27.2254C36.0615 27.8483 35.75 28.6202 35.75 29.541C35.75 30.4618 36.0615 31.2337 36.6844 31.8566C37.3073 32.4796 38.0792 32.791 39 32.791Z" fill="black"/>
</svg>
