<svg width="78" height="78" viewBox="0 0 78 78" fill="none" xmlns="http://www.w3.org/2000/svg">
<path d="M39 60.6667C40.2278 60.6667 41.2569 60.2514 42.0875 59.4208C42.9181 58.5903 43.3333 57.5611 43.3333 56.3333C43.3333 55.1056 42.9181 54.0764 42.0875 53.2458C41.2569 52.4153 40.2278 52 39 52C37.7722 52 36.7431 52.4153 35.9125 53.2458C35.0819 54.0764 34.6667 55.1056 34.6667 56.3333C34.6667 57.5611 35.0819 58.5903 35.9125 59.4208C36.7431 60.2514 37.7722 60.6667 39 60.6667ZM34.6667 43.3333H43.3333V17.3333H34.6667V43.3333ZM22.75 78L0 55.25V22.75L22.75 0H55.25L78 22.75V55.25L55.25 78H22.75ZM26.4333 69.3333H51.5667L69.3333 51.5667V26.4333L51.5667 8.66667H26.4333L8.66667 26.4333V51.5667L26.4333 69.3333Z" fill="white"/>
</svg>
