<svg width="249" height="95" viewBox="0 0 249 95" fill="none" xmlns="http://www.w3.org/2000/svg">
<path d="M2.45 24.2H5.25V3.55H2.45V0.749998H11.27V3.55H8.47V24.2H11.27V27H2.45V24.2ZM16.5061 0.749998H33.1661V7.61H30.3661V3.55H22.1761V12.475H30.3661V15.275H22.1761V24.2H24.9761V27H16.5061V24.2H18.9561V3.55H16.5061V0.749998ZM37.3557 0.749998H51.3557L54.9957 4.6V12.3L51.3557 16.15L55.1007 24.2H56.9207V27H50.3407V24.2H51.7057L47.9607 16.15H43.0257V24.2H45.1257V27H37.3557V24.2H39.8057V3.55H37.3557V0.749998ZM43.0257 3.76V13.14H49.9557L51.9857 11.075V5.825L49.9907 3.76H43.0257ZM67.4983 24.2H69.9483V27H61.8283V24.2H64.2783V3.55H61.8283V0.749998H69.1083L79.3283 23.045V3.55H76.8783V0.749998H84.9983V3.55H82.5483V27H77.7183L67.4983 4.74V24.2ZM222.551 22.8H226.051V27H222.551V22.8ZM222.551 8.8H226.051V13H222.551V8.8ZM0.6 40.9V38.5H6.96V40.9H4.74L9.09 57.7L13.44 40.9H12.15V38.5H18.63V40.9H17.31L21.66 57.7L26.01 40.9H23.82V38.5H30.18V40.9H28.77L23.58 61H19.89L15.39 43.63L10.89 61H7.2L1.98 40.9H0.6ZM33.191 41.5H40.151V43.9H38.051V50.05H47.291V43.9H45.191V41.5H52.151V43.9H50.051V58.6H52.151V61H45.191V58.6H47.291V52.45H38.051V58.6H40.151V61H33.191V58.6H35.291V43.9H33.191V41.5ZM56.9508 41.5H71.2308V47.38H68.8308V43.9H61.8108V50.05H68.8308V52.45H61.8108V58.6H68.8308V55.12H71.2308V61H56.9508V58.6H59.0508V43.9H56.9508V41.5ZM76.023 41.5H88.023L91.143 44.8V50.8L88.113 53.98L90.903 58.6H92.493V61H87.153V58.6H87.993L85.293 54.1H80.883V58.6H82.683V61H76.023V58.6H78.123V43.9H76.023V41.5ZM80.883 44.08V51.52H86.823L88.563 49.75V45.85L86.853 44.08H80.883ZM96.9996 41.5H111.28V47.38H108.88V43.9H101.86V50.05H108.88V52.45H101.86V58.6H108.88V55.12H111.28V61H96.9996V58.6H99.0996V43.9H96.9996V41.5Z" fill="white"/>
<path d="M106.493 0.749998H115.838V3.55H114.228L120.388 24.2H122.138V27H114.718V24.2H117.168L115.558 18.81H106.773L105.163 24.2H107.613V27H100.193V24.2H101.943L108.103 3.55H106.493V0.749998ZM111.148 4.075L107.613 16.01H114.718L111.148 4.075ZM125.471 4.25H139.471L143.111 8.1V15.1L139.576 18.81L142.831 24.2H144.686V27H138.456V24.2H139.436L136.286 18.95H131.141V24.2H133.241V27H125.471V24.2H127.921V7.05H125.471V4.25ZM131.141 7.26V15.94H138.071L140.101 13.875V9.325L138.106 7.26H131.141ZM149.944 4.25H166.604V11.11H163.804V7.05H155.614V14.225H163.804V17.025H155.614V24.2H163.804V20.14H166.604V27H149.944V24.2H152.394V7.05H149.944V4.25ZM177.865 24.2H180.315V27H172.195V24.2H174.645V7.05H172.195V4.25H179.475L189.695 23.57V7.05H187.245V4.25H195.365V7.05H192.915V27H188.085L177.865 7.715V24.2ZM212.848 27V24.2H215.158L213.653 19.86H204.903L203.398 24.2H205.743V27H198.323V24.2H200.178L206.093 7.05H204.623V4.25H213.968V7.05H212.463L218.378 24.2H220.268V27H212.848ZM209.278 7.155L205.848 17.06H212.708L209.278 7.155ZM5.85 72.5H13.86V74.9H12.48L17.76 92.6H19.26V95H12.9V92.6H15L13.62 87.98H6.09L4.71 92.6H6.81V95H0.45V92.6H1.95L7.23 74.9H5.85V72.5ZM9.84 75.35L6.81 85.58H12.9L9.84 75.35ZM22.1168 75.5H34.1168L37.2368 78.8V84.8L34.2068 87.98L36.9968 92.6H38.5868V95H33.2468V92.6H34.0868L31.3868 88.1H26.9768V92.6H28.7768V95H22.1168V92.6H24.2168V77.9H22.1168V75.5ZM26.9768 78.08V85.52H32.9168L34.6568 83.75V79.85L32.9468 78.08H26.9768ZM43.0934 75.5H57.3734V81.38H54.9734V77.9H47.9534V84.05H54.9734V86.45H47.9534V92.6H54.9734V89.12H57.3734V95H43.0934V92.6H45.1934V77.9H43.0934V75.5ZM72.6539 72.5H78.7739L84.4439 89.18L90.1139 72.5H96.2339V74.9H94.1339V92.6H96.2339V95H89.2739V92.6H91.3739V76.49L85.7639 92.6H83.1239L77.5139 76.49V92.6H79.6139V95H72.6539V92.6H74.7539V74.9H72.6539V72.5ZM111.543 95V92.6H113.523L112.233 88.88H104.733L103.443 92.6H105.453V95H99.0926V92.6H100.683L105.753 77.9H104.493V75.5H112.503V77.9H111.213L116.283 92.6H117.903V95H111.543ZM108.483 77.99L105.543 86.48H111.423L108.483 77.99ZM120.759 75.5H133.539L136.659 78.8V91.7L133.539 95H120.759V92.6H122.859V77.9H120.759V75.5ZM125.619 92.42H132.339L133.899 90.83V79.67L132.369 78.08H125.619V92.42ZM141.472 75.5H155.752V81.38H153.352V77.9H146.332V84.05H153.352V86.45H146.332V92.6H153.352V89.12H155.752V95H141.472V92.6H143.572V77.9H141.472V75.5Z" fill="#52AC6C"/>
<path d="M126.56 38.5H139.34L142.46 41.8V57.7L139.34 61H126.56V58.6H128.66V40.9H126.56V38.5ZM131.42 58.42H138.14L139.7 56.83V42.67L138.17 41.08H131.42V58.42ZM147.273 41.5H159.273L162.393 44.8V50.8L159.363 53.98L162.153 58.6H163.743V61H158.403V58.6H159.243L156.543 54.1H152.133V58.6H153.933V61H147.273V58.6H149.373V43.9H147.273V41.5ZM152.133 44.08V51.52H158.073L159.813 49.75V45.85L158.103 44.08H152.133ZM168.25 41.5H182.53V47.38H180.13V43.9H173.11V50.05H180.13V52.45H173.11V58.6H180.13V55.12H182.53V61H168.25V58.6H170.35V43.9H168.25V41.5ZM197.822 61V58.6H199.802L198.512 54.88H191.012L189.722 58.6H191.732V61H185.372V58.6H186.962L192.032 43.9H190.772V41.5H198.782V43.9H197.492L202.562 58.6H204.182V61H197.822ZM194.762 43.99L191.822 52.48H197.702L194.762 43.99ZM211.899 58.6H213.999V61H207.039V58.6H209.139V43.9H207.039V41.5H213.159L218.829 55.69L224.499 41.5H230.619V43.9H228.519V58.6H230.619V61H223.659V58.6H225.759V44.89L220.149 58.6H217.509L211.899 44.89V58.6ZM248.627 48.58H246.137V45.94L244.337 44.08H239.747L238.187 45.67V48.61L239.657 50.11H245.897L248.927 53.29V57.7L245.807 61H238.247L235.127 57.7V53.92H237.617V56.56L239.447 58.42H244.637L246.167 56.83V54.16L244.727 52.69H238.487L235.427 49.48V44.8L238.547 41.5H245.507L248.627 44.8V48.58Z" fill="#23FFE5"/>
</svg>
