<svg width="78" height="78" viewBox="0 0 78 78" fill="none" xmlns="http://www.w3.org/2000/svg">
<path d="M38.5619 39C35.027 39 32.001 37.7271 29.4838 35.1813C26.9666 32.6354 25.7079 29.575 25.7079 26C25.7079 22.425 26.9666 19.3646 29.4838 16.8188C32.001 14.2729 35.027 13 38.5619 13C42.0967 13 45.1227 14.2729 47.64 16.8188C50.1572 19.3646 51.4158 22.425 51.4158 26C51.4158 29.575 50.1572 32.6354 47.64 35.1813C45.1227 37.7271 42.0967 39 38.5619 39ZM12.854 65V55.9C12.854 54.0583 13.3226 52.3656 14.2599 50.8219C15.1972 49.2781 16.4424 48.1 17.9956 47.2875C21.3162 45.6083 24.6903 44.349 28.118 43.5094C31.5458 42.6698 35.027 42.25 38.5619 42.25C42.0967 42.25 45.578 42.6698 49.0057 43.5094C52.4334 44.349 55.8076 45.6083 59.1282 47.2875C60.6813 48.1 61.9266 49.2781 62.8638 50.8219C63.8011 52.3656 64.2697 54.0583 64.2697 55.9V65H12.854ZM19.281 58.5H57.8428V55.9C57.8428 55.3042 57.6955 54.7625 57.4009 54.275C57.1063 53.7875 56.7181 53.4083 56.236 53.1375C53.3439 51.675 50.425 50.5781 47.4793 49.8469C44.5336 49.1156 41.5611 48.75 38.5619 48.75C35.5626 48.75 32.5901 49.1156 29.6445 49.8469C26.6988 50.5781 23.7798 51.675 20.8877 53.1375C20.4057 53.4083 20.0174 53.7875 19.7228 54.275C19.4283 54.7625 19.281 55.3042 19.281 55.9V58.5ZM38.5619 32.5C40.3293 32.5 41.8423 31.8635 43.1009 30.5906C44.3595 29.3177 44.9888 27.7875 44.9888 26C44.9888 24.2125 44.3595 22.6823 43.1009 21.4094C41.8423 20.1365 40.3293 19.5 38.5619 19.5C36.7945 19.5 35.2814 20.1365 34.0228 21.4094C32.7642 22.6823 32.1349 24.2125 32.1349 26C32.1349 27.7875 32.7642 29.3177 34.0228 30.5906C35.2814 31.8635 36.7945 32.5 38.5619 32.5Z" fill="black"/>
</svg>
