<svg width="60" height="60" viewBox="0 0 60 60" fill="none" xmlns="http://www.w3.org/2000/svg">
<path d="M30.2936 29.8362C26.2145 29.8362 22.7224 28.3837 19.8176 25.4789C16.9127 22.574 15.4603 19.082 15.4603 15.0028C15.4603 10.9237 16.9127 7.43165 19.8176 4.52679C22.7224 1.62193 26.2145 0.169495 30.2936 0.169495C34.3728 0.169495 37.8648 1.62193 40.7697 4.52679C43.6745 7.43165 45.127 10.9237 45.127 15.0028C45.127 19.082 43.6745 22.574 40.7697 25.4789C37.8648 28.3837 34.3728 29.8362 30.2936 29.8362ZM0.626953 59.5028V49.1195C0.626953 47.0181 1.16775 45.0867 2.24935 43.3252C3.33095 41.5638 4.76793 40.2195 6.56029 39.2924C10.3922 37.3764 14.286 35.9395 18.2415 34.9815C22.1971 34.0235 26.2145 33.5445 30.2936 33.5445C34.3728 33.5445 38.3901 34.0235 42.3457 34.9815C46.3013 35.9395 50.195 37.3764 54.027 39.2924C55.8193 40.2195 57.2563 41.5638 58.3379 43.3252C59.4195 45.0867 59.9603 47.0181 59.9603 49.1195V59.5028H0.626953ZM8.04362 52.0862H52.5436V49.1195C52.5436 48.4396 52.3737 47.8216 52.0337 47.2653C51.6938 46.7091 51.2457 46.2764 50.6895 45.9674C47.352 44.2987 43.9835 43.0471 40.5842 42.2127C37.1849 41.3783 33.7547 40.9612 30.2936 40.9612C26.8325 40.9612 23.4023 41.3783 20.003 42.2127C16.6037 43.0471 13.2353 44.2987 9.89779 45.9674C9.34154 46.2764 8.89345 46.7091 8.55352 47.2653C8.21358 47.8216 8.04362 48.4396 8.04362 49.1195V52.0862ZM30.2936 22.4195C32.3332 22.4195 34.0792 21.6933 35.5316 20.2408C36.9841 18.7884 37.7103 17.0424 37.7103 15.0028C37.7103 12.9632 36.9841 11.2172 35.5316 9.76481C34.0792 8.31238 32.3332 7.58616 30.2936 7.58616C28.254 7.58616 26.508 8.31238 25.0556 9.76481C23.6032 11.2172 22.877 12.9632 22.877 15.0028C22.877 17.0424 23.6032 18.7884 25.0556 20.2408C26.508 21.6933 28.254 22.4195 30.2936 22.4195Z" fill="white"/>
</svg>
