<svg width="78" height="78" viewBox="0 0 78 78" fill="none" xmlns="http://www.w3.org/2000/svg">
<path d="M39 71.5C31.4708 69.6042 25.2552 65.2844 20.3531 58.5406C15.451 51.7969 13 44.3083 13 36.075V16.25L39 6.5L65 16.25V36.075C65 44.3083 62.549 51.7969 57.6469 58.5406C52.7448 65.2844 46.5292 69.6042 39 71.5ZM39 64.675C44.2542 63.05 48.6417 59.8406 52.1625 55.0469C55.6833 50.2531 57.7417 44.9042 58.3375 39H39V13.4062L19.5 20.7187V37.5375C19.5 37.9167 19.5542 38.4042 19.6625 39H39V64.675Z" fill="white"/>
</svg>
