<svg width="52" height="66" viewBox="0 0 52 66" fill="none" xmlns="http://www.w3.org/2000/svg">
<path d="M26 65.5C18.4708 63.6042 12.2552 59.2844 7.35313 52.5406C2.45104 45.7969 0 38.3083 0 30.075V10.25L26 0.5L52 10.25V30.075C52 38.3083 49.549 45.7969 44.6469 52.5406C39.7448 59.2844 33.5292 63.6042 26 65.5ZM26 58.675C31.2542 57.05 35.6417 53.8406 39.1625 49.0469C42.6833 44.2531 44.7417 38.9042 45.3375 33H26V7.40625L6.5 14.7187V31.5375C6.5 31.9167 6.55417 32.4042 6.6625 33H26V58.675Z" fill="black"/>
</svg>
